<svg width="18" height="15" viewBox="0 0 18 15" fill="none" xmlns="http://www.w3.org/2000/svg">
<path d="M10.6965 0.553824C10.7835 0.638578 11.1555 0.958597 11.4615 1.2567C13.386 3.00438 16.536 7.56357 17.4975 9.94983C17.652 10.3122 17.979 11.2284 18 11.718C18 12.187 17.892 12.6342 17.673 13.0609C17.367 13.5928 16.8855 14.0195 16.317 14.2533C15.9225 14.4038 14.742 14.6376 14.721 14.6376C13.4295 14.8714 11.331 15 9.012 15C6.8025 15 4.7895 14.8714 3.4785 14.68C3.4575 14.6581 1.9905 14.4243 1.488 14.1685C0.57 13.6995 0 12.7832 0 11.8027V11.718C0.0225 11.0794 0.5925 9.73648 0.6135 9.73648C1.5765 7.47881 4.572 3.02484 6.5625 1.23478C6.5625 1.23478 7.074 0.730638 7.3935 0.511447C7.8525 0.169508 8.421 0 8.9895 0C9.624 0 10.215 0.191427 10.6965 0.553824Z" fill="white"/>
</svg>
