<svg width="36" height="36" viewBox="0 0 36 36" fill="none" xmlns="http://www.w3.org/2000/svg">
<path d="M16.3035 24.9462C16.2165 24.8614 15.8445 24.5414 15.5385 24.2433C13.614 22.4956 10.464 17.9364 9.5025 15.5502C9.348 15.1878 9.021 14.2716 9 13.782C9 13.313 9.108 12.8658 9.327 12.4391C9.633 11.9072 10.1145 11.4805 10.683 11.2467C11.0775 11.0962 12.258 10.8624 12.279 10.8624C13.5705 10.6286 15.669 10.5 17.988 10.5C20.1975 10.5 22.2105 10.6286 23.5215 10.82C23.5425 10.8419 25.0095 11.0757 25.512 11.3315C26.43 11.8005 27 12.7168 27 13.6973V13.782C26.9775 14.4206 26.4075 15.7635 26.3865 15.7635C25.4235 18.0212 22.428 22.4752 20.4375 24.2652C20.4375 24.2652 19.926 24.7694 19.6065 24.9886C19.1475 25.3305 18.579 25.5 18.0105 25.5C17.376 25.5 16.785 25.3086 16.3035 24.9462" fill="white"/>
</svg>
