<svg width="36" height="36" viewBox="0 0 36 36" fill="none" xmlns="http://www.w3.org/2000/svg">
<path fill-rule="evenodd" clip-rule="evenodd" d="M30.4393 19.2343C31.0383 19.1518 31.5 18.6307 31.5 18.0002C31.5 17.3123 30.9505 16.7547 30.2727 16.7547L8.7001 16.7547L16.493 8.87799L16.6121 8.73855C16.9696 8.25171 16.9314 7.5597 16.4966 7.11662C16.0183 6.62922 15.2412 6.62759 14.7609 7.11297L4.87841 17.1007C4.81957 17.1579 4.76634 17.2209 4.71962 17.289C4.38504 17.7754 4.43218 18.4501 4.861 18.8834L14.761 28.8871L14.8989 29.0074C15.3801 29.3681 16.0619 29.3264 16.4966 28.8833C16.9749 28.3959 16.9732 27.6073 16.4929 27.1219L8.69816 19.2456L30.2727 19.2456L30.4393 19.2343Z" fill="white"/>
</svg>
