<svg width="36" height="36" viewBox="0 0 36 36" fill="none" xmlns="http://www.w3.org/2000/svg">
<path fill-rule="evenodd" clip-rule="evenodd" d="M5.56074 19.2343C4.96171 19.1518 4.5 18.6307 4.5 18.0002C4.5 17.3123 5.04947 16.7547 5.72727 16.7547L27.2999 16.7547L19.507 8.87799L19.3879 8.73855C19.0304 8.25171 19.0686 7.5597 19.5034 7.11662C19.9817 6.62922 20.7588 6.62759 21.2391 7.11297L31.1216 17.1007C31.1804 17.1579 31.2337 17.2209 31.2804 17.289C31.615 17.7754 31.5678 18.4501 31.139 18.8834L21.239 28.8871L21.1011 29.0074C20.6199 29.3681 19.9381 29.3264 19.5034 28.8833C19.0251 28.3959 19.0268 27.6073 19.5071 27.1219L27.3018 19.2456L5.72727 19.2456L5.56074 19.2343Z" fill="white"/>
</svg>
