<svg width="20" height="16" viewBox="0 0 20 16" fill="none" xmlns="http://www.w3.org/2000/svg">
<path d="M19.75 1.96017C19.0328 2.26954 18.2523 2.4922 17.4484 2.57892C18.2831 2.08306 18.9081 1.2997 19.2062 0.375791C18.423 0.841703 17.565 1.16841 16.6703 1.34142C16.2964 0.941634 15.8441 0.62315 15.3416 0.405808C14.8392 0.188467 14.2974 0.0769255 13.75 0.0781347C11.5352 0.0781347 9.75391 1.87345 9.75391 4.07657C9.75391 4.38595 9.79141 4.69532 9.85234 4.99298C6.53594 4.81954 3.57813 3.23517 1.61172 0.809385C1.25342 1.42137 1.06566 2.1182 1.06797 2.82735C1.06797 4.21485 1.77344 5.43829 2.84922 6.15782C2.21525 6.13285 1.59612 5.9586 1.04219 5.64923V5.69845C1.04219 7.64142 2.41563 9.25157 4.2461 9.62189C3.9024 9.71116 3.54885 9.75683 3.19375 9.75782C2.9336 9.75782 2.6875 9.73204 2.43906 9.69689C2.94531 11.2813 4.41953 12.432 6.175 12.4695C4.80156 13.5453 3.08125 14.1781 1.21328 14.1781C0.878127 14.1781 0.568751 14.1664 0.247658 14.1289C2.01953 15.2656 4.12188 15.9219 6.38594 15.9219C13.7359 15.9219 17.7578 9.83282 17.7578 4.54767C17.7578 4.37423 17.7578 4.20079 17.7461 4.02735C18.5242 3.45782 19.2062 2.75235 19.75 1.96017Z" fill="white"/>
</svg>
